{
	"asset":{
		"generator":"Khronos glTF Blender I/O v4.0.44",
		"version":"2.0"
	},
	"extensionsUsed":[
		"KHR_materials_unlit"
	],
	"scene":0,
	"scenes":[
		{
			"name":"Scene",
			"nodes":[
				40
			]
		}
	],
	"nodes":[
		{
			"name":"Bone.head",
			"rotation":[
				0.05314839631319046,
				1.3424917407400209e-14,
				1.2671563354160753e-08,
				0.9985866546630859
			],
			"scale":[
				1,
				0.9999999403953552,
				0.9999999403953552
			],
			"translation":[
				6.722053469410127e-16,
				0.13174322247505188,
				-1.3969838619232178e-09
			]
		},
		{
			"children":[
				0
			],
			"name":"Bone.neck",
			"rotation":[
				-0.011655660346150398,
				-4.510587557587486e-16,
				-2.7789250900411844e-09,
				0.9999321103096008
			],
			"scale":[
				1,
				1,
				0.9999999403953552
			],
			"translation":[
				-1.6306400674181987e-16,
				0.26457351446151733,
				1.862645149230957e-09
			]
		},
		{
			"name":"Bone.hand4.l",
			"rotation":[
				0.25150343775749207,
				0.10496461391448975,
				-0.013123438693583012,
				0.9620583653450012
			],
			"scale":[
				1,
				0.9999998807907104,
				0.9999999403953552
			],
			"translation":[
				-7.945345714688301e-08,
				0.027882568538188934,
				6.705522537231445e-08
			]
		},
		{
			"children":[
				2
			],
			"name":"Bone.hand3.l",
			"rotation":[
				0.2965153455734253,
				0.026185128837823868,
				0.02270810306072235,
				0.9543989300727844
			],
			"scale":[
				0.9999998807907104,
				1,
				1.0000001192092896
			],
			"translation":[
				1.907901605591178e-07,
				0.038260750472545624,
				-3.923196345567703e-08
			]
		},
		{
			"children":[
				3
			],
			"name":"Bone.hand2.l",
			"rotation":[
				0.1369280070066452,
				-0.019423862919211388,
				-0.0018528759246692061,
				0.990388810634613
			],
			"translation":[
				5.999754648655653e-08,
				0.09608757495880127,
				-1.862645149230957e-09
			]
		},
		{
			"children":[
				4
			],
			"name":"Bone.hand1.l",
			"rotation":[
				-0.008639294654130936,
				-0.0034098050091415644,
				-0.032336726784706116,
				0.9994338750839233
			],
			"scale":[
				1,
				1,
				0.9999999403953552
			],
			"translation":[
				-1.4562829164788127e-08,
				0.31194326281547546,
				-7.450580596923828e-09
			]
		},
		{
			"name":"Bone.thumb4.l",
			"rotation":[
				0.01366337202489376,
				-0.05945248156785965,
				-0.04245655611157417,
				0.9972342848777771
			],
			"scale":[
				1,
				0.9999998807907104,
				0.9999999403953552
			],
			"translation":[
				-1.317821443080902e-07,
				0.01882767304778099,
				-2.7939677238464355e-08
			]
		},
		{
			"children":[
				6
			],
			"name":"Bone.thumb3.l",
			"rotation":[
				0.035218771547079086,
				-0.06386834383010864,
				-0.11159408092498779,
				0.9910737872123718
			],
			"scale":[
				1,
				0.9999998807907104,
				1.0000001192092896
			],
			"translation":[
				3.5885022953152657e-08,
				0.02864288166165352,
				-3.119930624961853e-08
			]
		},
		{
			"children":[
				7
			],
			"name":"Bone.thumb2.l",
			"rotation":[
				0.31541702151298523,
				0.020166272297501564,
				-0.05661087483167648,
				0.9470483660697937
			],
			"scale":[
				0.9999998807907104,
				1.0000001192092896,
				1
			],
			"translation":[
				-7.548078428953886e-08,
				0.06710666418075562,
				0
			]
		},
		{
			"children":[
				8
			],
			"name":"Bone.thumb1.l",
			"rotation":[
				-0.0030099337454885244,
				0.012695958837866783,
				0.24217800796031952,
				0.9701441526412964
			],
			"scale":[
				0.9999999403953552,
				0.9999999403953552,
				0.9999998807907104
			],
			"translation":[
				-1.4562829164788127e-08,
				0.31194326281547546,
				-7.450580596923828e-09
			]
		},
		{
			"children":[
				5,
				9
			],
			"name":"Bone.forearm.l",
			"rotation":[
				0.017850136384367943,
				0.002236177446320653,
				0.04912811145186424,
				0.9986304640769958
			],
			"translation":[
				8.556162356399e-08,
				0.3258729577064514,
				-2.3283064365386963e-09
			]
		},
		{
			"children":[
				10
			],
			"name":"Bone.arm.l",
			"rotation":[
				0.0796845406293869,
				0.04924951493740082,
				-0.6398102045059204,
				0.7628026008605957
			],
			"translation":[
				4.251432983437553e-08,
				0.20389562845230103,
				7.450580596923828e-09
			]
		},
		{
			"children":[
				11
			],
			"name":"Bone.shoulder.l",
			"rotation":[
				-0.087252676486969,
				0.04267935827374458,
				-0.5442321300506592,
				0.8332927823066711
			],
			"scale":[
				1,
				0.9999999403953552,
				1
			],
			"translation":[
				-1.6306400674181987e-16,
				0.26457351446151733,
				1.862645149230957e-09
			]
		},
		{
			"name":"Bone.hand4.r",
			"rotation":[
				0.25150346755981445,
				-0.10496419668197632,
				0.013123509474098682,
				0.962058424949646
			],
			"scale":[
				0.9999999403953552,
				0.9999999403953552,
				0.9999999403953552
			],
			"translation":[
				2.1653249859809875e-08,
				0.027882520109415054,
				-5.3085386753082275e-08
			]
		},
		{
			"children":[
				13
			],
			"name":"Bone.hand3.r",
			"rotation":[
				0.2965152859687805,
				-0.02618514746427536,
				-0.02270810678601265,
				0.9543989896774292
			],
			"scale":[
				1,
				1,
				1.0000001192092896
			],
			"translation":[
				-7.158087100833654e-08,
				0.03826078027486801,
				-2.5029294192790985e-08
			]
		},
		{
			"children":[
				14
			],
			"name":"Bone.hand2.r",
			"rotation":[
				0.1369280070066452,
				0.019423743709921837,
				0.0018529250519350171,
				0.990388810634613
			],
			"scale":[
				1,
				0.9999999403953552,
				1
			],
			"translation":[
				-1.7597631085664034e-07,
				0.0960874855518341,
				1.862645149230957e-09
			]
		},
		{
			"name":"Bone.weapon.r.ik.1",
			"rotation":[
				-0.012181839905679226,
				0.0002623574691824615,
				-0.047292597591876984,
				0.9988067746162415
			],
			"scale":[
				1,
				1,
				0.9999999403953552
			],
			"translation":[
				4.190951585769653e-09,
				0.11622228473424911,
				5.820766091346741e-08
			]
		},
		{
			"children":[
				16
			],
			"name":"Bone.weapon.r.ik",
			"rotation":[
				-0.020526187494397163,
				-0.0017322733765468001,
				0.011527576483786106,
				0.999721348285675
			],
			"scale":[
				0.9999999403953552,
				1.0000001192092896,
				1
			],
			"translation":[
				2.3283064365386963e-09,
				0.1604500710964203,
				2.8172507882118225e-08
			]
		},
		{
			"children":[
				17
			],
			"name":"Bone.weapon.r",
			"rotation":[
				-0.6708941459655762,
				0.6233099102973938,
				0.2509717643260956,
				0.31368619203567505
			],
			"scale":[
				0.9999999403953552,
				0.9999999403953552,
				0.9999999403953552
			],
			"translation":[
				0.11612799763679504,
				0.09484303742647171,
				0.028276443481445312
			]
		},
		{
			"children":[
				15,
				18
			],
			"name":"Bone.hand1.r",
			"rotation":[
				-0.008639292791485786,
				0.003409920260310173,
				0.03233664482831955,
				0.9994338750839233
			],
			"translation":[
				-1.534681359771639e-08,
				0.3119432032108307,
				9.313225746154785e-10
			]
		},
		{
			"name":"Bone.thumb4.r",
			"rotation":[
				0.013663352467119694,
				0.05945238098502159,
				0.04245655983686447,
				0.9972342848777771
			],
			"scale":[
				1,
				0.9999998807907104,
				1
			],
			"translation":[
				-1.073349267244339e-07,
				0.01882767304778099,
				-5.587935447692871e-08
			]
		},
		{
			"children":[
				20
			],
			"name":"Bone.thumb3.r",
			"rotation":[
				0.03521878272294998,
				0.0638684555888176,
				0.11159401386976242,
				0.9910737872123718
			],
			"scale":[
				1,
				1.0000001192092896,
				1
			],
			"translation":[
				8.405186235904694e-08,
				0.028642885386943817,
				5.774199962615967e-08
			]
		},
		{
			"children":[
				21
			],
			"name":"Bone.thumb2.r",
			"rotation":[
				0.31541708111763,
				-0.02016635797917843,
				0.05661092698574066,
				0.9470483660697937
			],
			"scale":[
				0.9999999403953552,
				0.9999999403953552,
				1
			],
			"translation":[
				1.5934347175061703e-08,
				0.06710673868656158,
				0
			]
		},
		{
			"children":[
				22
			],
			"name":"Bone.thumb1.r",
			"rotation":[
				-0.003009933978319168,
				-0.012695958837866783,
				-0.2421780675649643,
				0.9701440930366516
			],
			"scale":[
				1,
				1,
				0.9999999403953552
			],
			"translation":[
				-1.534681359771639e-08,
				0.3119432032108307,
				9.313225746154785e-10
			]
		},
		{
			"children":[
				19,
				23
			],
			"name":"Bone.forearm.r",
			"rotation":[
				0.017850134521722794,
				-0.002236104803159833,
				-0.04912802204489708,
				0.9986305236816406
			],
			"scale":[
				1,
				0.9999999403953552,
				0.9999999403953552
			],
			"translation":[
				1.1767042451538146e-07,
				0.32587313652038574,
				-3.259629011154175e-09
			]
		},
		{
			"children":[
				24
			],
			"name":"Bone.arm.r",
			"rotation":[
				0.07968458533287048,
				-0.049249570816755295,
				0.6398101449012756,
				0.7628026008605957
			],
			"scale":[
				1,
				1,
				0.9999999403953552
			],
			"translation":[
				-5.030824468121864e-08,
				0.20389561355113983,
				0
			]
		},
		{
			"children":[
				25
			],
			"name":"Bone.shoulder.r",
			"rotation":[
				-0.08725280314683914,
				-0.0426795668900013,
				0.5442321300506592,
				0.8332927823066711
			],
			"scale":[
				1,
				0.9999999403953552,
				1
			],
			"translation":[
				-1.6306400674181987e-16,
				0.26457351446151733,
				1.862645149230957e-09
			]
		},
		{
			"children":[
				1,
				12,
				26
			],
			"name":"Bone.back",
			"rotation":[
				-0.09069567918777466,
				4.3531230176085955e-08,
				-1.7659051110285873e-08,
				0.9958786964416504
			],
			"translation":[
				6.990935608186533e-16,
				0.14776746928691864,
				-7.450580596923828e-09
			]
		},
		{
			"children":[
				27
			],
			"name":"Bone.lowerback",
			"rotation":[
				-0.626633882522583,
				-6.25618667982053e-07,
				-5.975047088213614e-07,
				0.7793138027191162
			],
			"scale":[
				1,
				0.9999998807907104,
				0.9999999403953552
			],
			"translation":[
				-1.3061947357062564e-13,
				0.04740076884627342,
				3.559398464858532e-08
			]
		},
		{
			"name":"Bone.foot.l",
			"rotation":[
				0.035841915756464005,
				-0.014836029149591923,
				-0.5982264280319214,
				0.8003876805305481
			],
			"scale":[
				1,
				1.0000001192092896,
				1
			],
			"translation":[
				5.948095349594951e-09,
				0.4543234705924988,
				6.833229093672344e-09
			]
		},
		{
			"children":[
				29
			],
			"name":"Bone.lowerleg.l",
			"rotation":[
				0.015610096044838428,
				-0.00045003328705206513,
				0.09939056634902954,
				0.9949259757995605
			],
			"translation":[
				1.775333657860756e-09,
				0.4789331555366516,
				5.811131131849834e-09
			]
		},
		{
			"children":[
				30
			],
			"name":"Bone.leg.l",
			"rotation":[
				-0.5294101238250732,
				0.00234365020878613,
				-0.09641559422016144,
				0.8428662419319153
			],
			"scale":[
				1,
				0.9999999403953552,
				1
			],
			"translation":[
				-4.6566128730773926e-09,
				0.12509171664714813,
				1.6298145055770874e-08
			]
		},
		{
			"children":[
				31
			],
			"name":"Bone.butt.l",
			"rotation":[
				0.7240824699401855,
				0.6452467441558838,
				0.1794119030237198,
				0.16484099626541138
			],
			"scale":[
				1,
				1.0000001192092896,
				1
			],
			"translation":[
				-1.3061947357062564e-13,
				0.04740076884627342,
				3.559398464858532e-08
			]
		},
		{
			"name":"Bone.foot.r",
			"rotation":[
				0.03584203124046326,
				0.014835838228464127,
				0.5982263088226318,
				0.8003877997398376
			],
			"scale":[
				0.9999999403953552,
				1,
				1
			],
			"translation":[
				3.92901711165905e-10,
				0.45432353019714355,
				7.3927495236603136e-09
			]
		},
		{
			"children":[
				33
			],
			"name":"Bone.lowerleg.r",
			"rotation":[
				0.01561009045690298,
				0.00045009265886619687,
				-0.09939053654670715,
				0.9949259757995605
			],
			"translation":[
				4.685716703534126e-09,
				0.4789331555366516,
				5.816559678351041e-09
			]
		},
		{
			"children":[
				34
			],
			"name":"Bone.leg.r",
			"rotation":[
				-0.5294101238250732,
				-0.002343667671084404,
				0.09641562402248383,
				0.8428662419319153
			],
			"scale":[
				1,
				0.9999999403953552,
				1
			],
			"translation":[
				8.381903171539307e-09,
				0.12509171664714813,
				-4.0512531995773315e-08
			]
		},
		{
			"children":[
				35
			],
			"name":"Bone.butt.r",
			"rotation":[
				0.724082887172699,
				-0.6452470421791077,
				-0.1794106364250183,
				0.16483983397483826
			],
			"scale":[
				1,
				1.0000001192092896,
				0.9999999403953552
			],
			"translation":[
				-1.3061947357062564e-13,
				0.04740076884627342,
				3.559398464858532e-08
			]
		},
		{
			"children":[
				28,
				32,
				36
			],
			"name":"Bone.hip",
			"rotation":[
				-0.0030062810983508825,
				0.7071003317832947,
				0.003006269922479987,
				0.7071004509925842
			],
			"scale":[
				0.9999999403953552,
				0.9999999403953552,
				0.9999999403953552
			],
			"translation":[
				-1.0386767387390137,
				0.005975447595119476,
				-1.9027007738259272e-06
			]
		},
		{
			"children":[
				37
			],
			"name":"Bone.root",
			"rotation":[
				0.5000004768371582,
				-0.4999995827674866,
				-0.4999995827674866,
				0.5000004172325134
			],
			"scale":[
				1,
				0.9999999403953552,
				1
			],
			"translation":[
				0,
				0,
				-0.10000000149011612
			]
		},
		{
			"mesh":0,
			"name":"body.alfmyr",
			"skin":0
		},
		{
			"children":[
				39,
				38
			],
			"name":"armature.alfmyr"
		}
	],
	"materials":[
		{
			"doubleSided":true,
			"extensions":{
				"KHR_materials_unlit":{}
			},
			"name":"alfmyr",
			"pbrMetallicRoughness":{
				"baseColorTexture":{
					"index":0
				},
				"metallicFactor":0,
				"roughnessFactor":0.9
			}
		}
	],
	"meshes":[
		{
			"name":"Cube.016",
			"primitives":[
				{
					"attributes":{
						"POSITION":0,
						"TEXCOORD_0":1,
						"JOINTS_0":2,
						"WEIGHTS_0":3
					},
					"indices":4,
					"material":0
				}
			]
		}
	],
	"textures":[
		{
			"sampler":0,
			"source":0
		}
	],
	"images":[
		{
			"mimeType":"image/png",
			"name":"alfmyr skin",
			"uri":"alfmyr%20skin.png"
		}
	],
	"skins":[
		{
			"inverseBindMatrices":5,
			"joints":[
				38,
				37,
				28,
				27,
				1,
				0,
				12,
				11,
				10,
				5,
				4,
				3,
				2,
				9,
				8,
				7,
				6,
				26,
				25,
				24,
				19,
				15,
				14,
				13,
				18,
				17,
				16,
				23,
				22,
				21,
				20,
				32,
				31,
				30,
				29,
				36,
				35,
				34,
				33
			],
			"name":"armature.alfmyr"
		}
	],
	"accessors":[
		{
			"bufferView":0,
			"componentType":5126,
			"count":878,
			"max":[
				0.6759134531021118,
				1.8491551876068115,
				0.12694095075130463
			],
			"min":[
				-0.6759134531021118,
				-0.006726599298417568,
				-0.17958106100559235
			],
			"type":"VEC3"
		},
		{
			"bufferView":1,
			"componentType":5126,
			"count":878,
			"type":"VEC2"
		},
		{
			"bufferView":2,
			"componentType":5121,
			"count":878,
			"type":"VEC4"
		},
		{
			"bufferView":3,
			"componentType":5126,
			"count":878,
			"type":"VEC4"
		},
		{
			"bufferView":4,
			"componentType":5123,
			"count":3000,
			"type":"SCALAR"
		},
		{
			"bufferView":5,
			"componentType":5126,
			"count":39,
			"type":"MAT4"
		}
	],
	"bufferViews":[
		{
			"buffer":0,
			"byteLength":10536,
			"byteOffset":0,
			"target":34962
		},
		{
			"buffer":0,
			"byteLength":7024,
			"byteOffset":10536,
			"target":34962
		},
		{
			"buffer":0,
			"byteLength":3512,
			"byteOffset":17560,
			"target":34962
		},
		{
			"buffer":0,
			"byteLength":14048,
			"byteOffset":21072,
			"target":34962
		},
		{
			"buffer":0,
			"byteLength":6000,
			"byteOffset":35120,
			"target":34963
		},
		{
			"buffer":0,
			"byteLength":2496,
			"byteOffset":41120
		}
	],
	"samplers":[
		{
			"magFilter":9728,
			"minFilter":9984
		}
	],
	"buffers":[
		{
			"byteLength":43616,
			"uri":"human.bin"
		}
	]
}
